<?xml version="1.0" encoding="UTF-8" standalone="no"?>
<!DOCTYPE svg PUBLIC "-//W3C//DTD SVG 1.0//EN"
 "http://www.w3.org/TR/2001/REC-SVG-20010904/DTD/svg10.dtd" [
 <!ATTLIST svg xmlns:xlink CDATA #FIXED "http://www.w3.org/1999/xlink">
]>
<!-- Generated by Graphviz version 2.20.2 (Tue Mar &#160;2 21:46:26 UTC 2010)
     For user: (shaman) Laurent Bovet,,, -->
<!-- Title: _anonymous_0 Pages: 1 -->
<svg width="476pt" height="188pt"
 viewBox="0.00 0.00 476.00 188.00" xmlns="http://www.w3.org/2000/svg" xmlns:xlink="http://www.w3.org/1999/xlink">
<g id="graph0" class="graph" transform="scale(1 1) rotate(0) translate(4 184)">
<title>_anonymous_0</title>
<polygon style="fill:white;stroke:white;" points="-4,4 -4,-184 472,-184 472,4 -4,4"/>
<!-- m1 -->
<g id="node1" class="node"><title>m1</title>
<polygon style="fill:none;stroke:black;" points="180,-144 180,-180 288,-180 288,-144 180,-144"/>
<text text-anchor="middle" x="234" y="-168.8" style="font-family:Arial;font-size:8.00;"> </text>
<polyline style="fill:none;stroke:black;" points="180,-162 288,-162 "/>
<text text-anchor="middle" x="234" y="-150.8" style="font-family:Arial;font-size:8.00;"> </text>
</g>
<!-- m4 -->
<g id="node2" class="node"><title>m4</title>
<polygon style="fill:none;stroke:black;" points="0,-72 0,-108 108,-108 108,-72 0,-72"/>
<text text-anchor="middle" x="54" y="-96.8" style="font-family:Arial;font-size:8.00;"> </text>
<polyline style="fill:none;stroke:black;" points="0,-90 108,-90 "/>
<text text-anchor="middle" x="54" y="-78.8" style="font-family:Arial;font-size:8.00;"> </text>
</g>
<!-- m1&#45;&gt;m4 -->
<g id="edge2" class="edge"><title>m1&#45;&gt;m4</title>
<path style="fill:none;stroke:#00cd00;stroke-width:2;" d="M189,-144C164,-134 134,-122 108,-112"/>
<polygon style="fill:#00cd00;stroke:#00cd00;" points="109.56,-108.863 99,-108 106.717,-115.26 109.56,-108.863"/>
</g>
<!-- m6 -->
<g id="node4" class="node"><title>m6</title>
<polygon style="fill:none;stroke:black;" points="360,-72 360,-108 468,-108 468,-72 360,-72"/>
<text text-anchor="middle" x="414" y="-96.8" style="font-family:Arial;font-size:8.00;"> </text>
<polyline style="fill:none;stroke:black;" points="360,-90 468,-90 "/>
<text text-anchor="middle" x="414" y="-78.8" style="font-family:Arial;font-size:8.00;"> </text>
</g>
<!-- m1&#45;&gt;m6 -->
<g id="edge4" class="edge"><title>m1&#45;&gt;m6</title>
<path style="fill:none;stroke:#cd0000;stroke-width:2;" d="M279,-144C304,-134 334,-122 360,-112"/>
<polygon style="fill:#cd0000;stroke:#cd0000;" points="361.283,-115.26 369,-108 358.44,-108.863 361.283,-115.26"/>
</g>
<!-- m7 -->
<g id="node13" class="node"><title>m7</title>
<polygon style="fill:none;stroke:black;" points="0,-0 0,-36 108,-36 108,-0 0,-0"/>
<text text-anchor="middle" x="54" y="-24.8" style="font-family:Arial;font-size:8.00;"> </text>
<polyline style="fill:none;stroke:black;" points="0,-18 108,-18 "/>
<text text-anchor="middle" x="54" y="-6.8" style="font-family:Arial;font-size:8.00;"> </text>
</g>
<!-- m4&#45;&gt;m7 -->
<g id="edge14" class="edge"><title>m4&#45;&gt;m7</title>
<path style="fill:none;stroke:#00cd00;stroke-width:2;" d="M54,-72C54,-64 54,-55 54,-46"/>
<polygon style="fill:#00cd00;stroke:#00cd00;" points="57.5001,-46 54,-36 50.5001,-46 57.5001,-46"/>
</g>
<!-- m9 -->
<g id="node15" class="node"><title>m9</title>
<polygon style="fill:none;stroke:black;" points="180,-0 180,-36 288,-36 288,-0 180,-0"/>
<text text-anchor="middle" x="234" y="-24.8" style="font-family:Arial;font-size:8.00;"> </text>
<polyline style="fill:none;stroke:black;" points="180,-18 288,-18 "/>
<text text-anchor="middle" x="234" y="-6.8" style="font-family:Arial;font-size:8.00;"> </text>
</g>
<!-- m4&#45;&gt;m9 -->
<g id="edge16" class="edge"><title>m4&#45;&gt;m9</title>
<path style="fill:none;stroke:#cd0000;stroke-width:2;" d="M99,-72C124,-62 154,-50 180,-40"/>
<polygon style="fill:#cd0000;stroke:#cd0000;" points="181.283,-43.2598 189,-36 178.44,-36.8631 181.283,-43.2598"/>
</g>
<!-- m6&#45;&gt;m9 -->
<g id="edge24" class="edge"><title>m6&#45;&gt;m9</title>
<path style="fill:none;stroke:#00cd00;stroke-width:2;" d="M369,-72C344,-62 314,-50 288,-40"/>
<polygon style="fill:#00cd00;stroke:#00cd00;" points="289.56,-36.8631 279,-36 286.717,-43.2598 289.56,-36.8631"/>
</g>
<!-- m8 -->
<g id="node18" class="node"><title>m8</title>
<polygon style="fill:none;stroke:black;" points="360,-0 360,-36 468,-36 468,-0 360,-0"/>
<text text-anchor="middle" x="414" y="-24.8" style="font-family:Arial;font-size:8.00;"> </text>
<polyline style="fill:none;stroke:black;" points="360,-18 468,-18 "/>
<text text-anchor="middle" x="414" y="-6.8" style="font-family:Arial;font-size:8.00;"> </text>
</g>
<!-- m6&#45;&gt;m8 -->
<g id="edge22" class="edge"><title>m6&#45;&gt;m8</title>
<path style="fill:none;stroke:#cd0000;stroke-width:2;" d="M414,-72C414,-64 414,-55 414,-46"/>
<polygon style="fill:#cd0000;stroke:#cd0000;" points="417.5,-46 414,-36 410.5,-46 417.5,-46"/>
</g>
<!-- m2 -->
<g id="node6" class="node"><title>m2</title>
<polygon style="fill:none;stroke:black;" points="0,-144 0,-180 108,-180 108,-144 0,-144"/>
<text text-anchor="middle" x="54" y="-168.8" style="font-family:Arial;font-size:8.00;"> </text>
<polyline style="fill:none;stroke:black;" points="0,-162 108,-162 "/>
<text text-anchor="middle" x="54" y="-150.8" style="font-family:Arial;font-size:8.00;"> </text>
</g>
<!-- m2&#45;&gt;m4 -->
<g id="edge6" class="edge"><title>m2&#45;&gt;m4</title>
<path style="fill:none;stroke:#cd0000;stroke-width:2;" d="M54,-144C54,-136 54,-127 54,-118"/>
<polygon style="fill:#cd0000;stroke:#cd0000;" points="57.5001,-118 54,-108 50.5001,-118 57.5001,-118"/>
</g>
<!-- m5 -->
<g id="node8" class="node"><title>m5</title>
<polygon style="fill:none;stroke:black;" points="180,-72 180,-108 288,-108 288,-72 180,-72"/>
<text text-anchor="middle" x="234" y="-96.8" style="font-family:Arial;font-size:8.00;"> </text>
<polyline style="fill:none;stroke:black;" points="180,-90 288,-90 "/>
<text text-anchor="middle" x="234" y="-78.8" style="font-family:Arial;font-size:8.00;"> </text>
</g>
<!-- m2&#45;&gt;m5 -->
<g id="edge8" class="edge"><title>m2&#45;&gt;m5</title>
<path style="fill:none;stroke:#00cd00;stroke-width:2;" d="M99,-144C124,-134 154,-122 180,-112"/>
<polygon style="fill:#00cd00;stroke:#00cd00;" points="181.283,-115.26 189,-108 178.44,-108.863 181.283,-115.26"/>
</g>
<!-- m5&#45;&gt;m7 -->
<g id="edge18" class="edge"><title>m5&#45;&gt;m7</title>
<path style="fill:none;stroke:#cd0000;stroke-width:2;" d="M189,-72C164,-62 134,-50 108,-40"/>
<polygon style="fill:#cd0000;stroke:#cd0000;" points="109.56,-36.8631 99,-36 106.717,-43.2598 109.56,-36.8631"/>
</g>
<!-- m5&#45;&gt;m8 -->
<g id="edge20" class="edge"><title>m5&#45;&gt;m8</title>
<path style="fill:none;stroke:#00cd00;stroke-width:2;" d="M279,-72C304,-62 334,-50 360,-40"/>
<polygon style="fill:#00cd00;stroke:#00cd00;" points="361.283,-43.2598 369,-36 358.44,-36.8631 361.283,-43.2598"/>
</g>
<!-- m3 -->
<g id="node10" class="node"><title>m3</title>
<polygon style="fill:none;stroke:black;" points="360,-144 360,-180 468,-180 468,-144 360,-144"/>
<text text-anchor="middle" x="414" y="-168.8" style="font-family:Arial;font-size:8.00;"> </text>
<polyline style="fill:none;stroke:black;" points="360,-162 468,-162 "/>
<text text-anchor="middle" x="414" y="-150.8" style="font-family:Arial;font-size:8.00;"> </text>
</g>
<!-- m3&#45;&gt;m6 -->
<g id="edge12" class="edge"><title>m3&#45;&gt;m6</title>
<path style="fill:none;stroke:#00cd00;stroke-width:2;" d="M414,-144C414,-136 414,-127 414,-118"/>
<polygon style="fill:#00cd00;stroke:#00cd00;" points="417.5,-118 414,-108 410.5,-118 417.5,-118"/>
</g>
<!-- m3&#45;&gt;m5 -->
<g id="edge10" class="edge"><title>m3&#45;&gt;m5</title>
<path style="fill:none;stroke:#cd0000;stroke-width:2;" d="M369,-144C344,-134 314,-122 288,-112"/>
<polygon style="fill:#cd0000;stroke:#cd0000;" points="289.56,-108.863 279,-108 286.717,-115.26 289.56,-108.863"/>
</g>
</g>
</svg>
