<?xml version="1.0" encoding="UTF-8" standalone="no"?>
<!DOCTYPE svg PUBLIC "-//W3C//DTD SVG 1.0//EN"
 "http://www.w3.org/TR/2001/REC-SVG-20010904/DTD/svg10.dtd" [
 <!ATTLIST svg xmlns:xlink CDATA #FIXED "http://www.w3.org/1999/xlink">
]>
<!-- Generated by Graphviz version 2.20.2 (Tue Mar &#160;2 21:46:26 UTC 2010)
     For user: (shaman) Laurent Bovet,,, -->
<!-- Title: _anonymous_0 Pages: 1 -->
<svg width="656pt" height="260pt"
 viewBox="0.00 0.00 656.00 260.00" xmlns="http://www.w3.org/2000/svg" xmlns:xlink="http://www.w3.org/1999/xlink">
<g id="graph0" class="graph" transform="scale(1 1) rotate(0) translate(4 256)">
<title>_anonymous_0</title>
<polygon style="fill:white;stroke:white;" points="-4,4 -4,-256 652,-256 652,4 -4,4"/>
<!-- m1 -->
<g id="node1" class="node"><title>m1</title>
<polygon style="fill:none;stroke:black;" points="180,-216 180,-252 288,-252 288,-216 180,-216"/>
<text text-anchor="middle" x="234" y="-240.8" style="font-family:Arial;font-size:8.00;"> </text>
<polyline style="fill:none;stroke:black;" points="180,-234 288,-234 "/>
<text text-anchor="middle" x="234" y="-222.8" style="font-family:Arial;font-size:8.00;"> </text>
</g>
<!-- m5 -->
<g id="node2" class="node"><title>m5</title>
<polygon style="fill:none;stroke:black;" points="0,-144 0,-180 108,-180 108,-144 0,-144"/>
<text text-anchor="middle" x="54" y="-168.8" style="font-family:Arial;font-size:8.00;"> </text>
<polyline style="fill:none;stroke:black;" points="0,-162 108,-162 "/>
<text text-anchor="middle" x="54" y="-150.8" style="font-family:Arial;font-size:8.00;"> </text>
</g>
<!-- m1&#45;&gt;m5 -->
<g id="edge2" class="edge"><title>m1&#45;&gt;m5</title>
<path style="fill:none;stroke:#00cd00;stroke-width:2;" d="M189,-216C164,-206 134,-194 108,-184"/>
<polygon style="fill:#00cd00;stroke:#00cd00;" points="109.56,-180.863 99,-180 106.717,-187.26 109.56,-180.863"/>
</g>
<!-- m7 -->
<g id="node4" class="node"><title>m7</title>
<polygon style="fill:none;stroke:black;" points="180,-144 180,-180 288,-180 288,-144 180,-144"/>
<text text-anchor="middle" x="234" y="-168.8" style="font-family:Arial;font-size:8.00;"> </text>
<polyline style="fill:none;stroke:black;" points="180,-162 288,-162 "/>
<text text-anchor="middle" x="234" y="-150.8" style="font-family:Arial;font-size:8.00;"> </text>
</g>
<!-- m1&#45;&gt;m7 -->
<g id="edge4" class="edge"><title>m1&#45;&gt;m7</title>
<path style="fill:none;stroke:#cd0000;" d="M234,-216C234,-208 234,-199 234,-190"/>
<polygon style="fill:#cd0000;stroke:#cd0000;" points="237.5,-190 234,-180 230.5,-190 237.5,-190"/>
</g>
<!-- m9 -->
<g id="node17" class="node"><title>m9</title>
<polygon style="fill:none;stroke:black;" points="0,-72 0,-108 108,-108 108,-72 0,-72"/>
<text text-anchor="middle" x="54" y="-96.8" style="font-family:Arial;font-size:8.00;"> </text>
<polyline style="fill:none;stroke:black;" points="0,-90 108,-90 "/>
<text text-anchor="middle" x="54" y="-78.8" style="font-family:Arial;font-size:8.00;"> </text>
</g>
<!-- m5&#45;&gt;m9 -->
<g id="edge18" class="edge"><title>m5&#45;&gt;m9</title>
<path style="fill:none;stroke:#00cd00;stroke-width:2;" d="M54,-144C54,-136 54,-127 54,-118"/>
<polygon style="fill:#00cd00;stroke:#00cd00;" points="57.5001,-118 54,-108 50.5001,-118 57.5001,-118"/>
</g>
<!-- m11 -->
<g id="node19" class="node"><title>m11</title>
<polygon style="fill:none;stroke:black;" points="360,-72 360,-108 468,-108 468,-72 360,-72"/>
<text text-anchor="middle" x="414" y="-96.8" style="font-family:Arial;font-size:8.00;"> </text>
<polyline style="fill:none;stroke:black;" points="360,-90 468,-90 "/>
<text text-anchor="middle" x="414" y="-78.8" style="font-family:Arial;font-size:8.00;"> </text>
</g>
<!-- m5&#45;&gt;m11 -->
<g id="edge20" class="edge"><title>m5&#45;&gt;m11</title>
<path style="fill:none;stroke:#cd0000;" d="M108,-151C173,-138 281,-116 350,-103"/>
<polygon style="fill:#cd0000;stroke:#cd0000;" points="350.881,-106.393 360,-101 349.508,-99.5292 350.881,-106.393"/>
</g>
<!-- m10 -->
<g id="node23" class="node"><title>m10</title>
<polygon style="fill:none;stroke:black;" points="180,-72 180,-108 288,-108 288,-72 180,-72"/>
<text text-anchor="middle" x="234" y="-96.8" style="font-family:Arial;font-size:8.00;"> </text>
<polyline style="fill:none;stroke:black;" points="180,-90 288,-90 "/>
<text text-anchor="middle" x="234" y="-78.8" style="font-family:Arial;font-size:8.00;"> </text>
</g>
<!-- m7&#45;&gt;m10 -->
<g id="edge26" class="edge"><title>m7&#45;&gt;m10</title>
<path style="fill:none;stroke:#00cd00;stroke-width:2;" d="M234,-144C234,-136 234,-127 234,-118"/>
<polygon style="fill:#00cd00;stroke:#00cd00;" points="237.5,-118 234,-108 230.5,-118 237.5,-118"/>
</g>
<!-- m12 -->
<g id="node25" class="node"><title>m12</title>
<polygon style="fill:none;stroke:black;" points="540,-72 540,-108 648,-108 648,-72 540,-72"/>
<text text-anchor="middle" x="594" y="-96.8" style="font-family:Arial;font-size:8.00;"> </text>
<polyline style="fill:none;stroke:black;" points="540,-90 648,-90 "/>
<text text-anchor="middle" x="594" y="-78.8" style="font-family:Arial;font-size:8.00;"> </text>
</g>
<!-- m7&#45;&gt;m12 -->
<g id="edge28" class="edge"><title>m7&#45;&gt;m12</title>
<path style="fill:none;stroke:#cd0000;" d="M288,-151C353,-138 461,-116 530,-103"/>
<polygon style="fill:#cd0000;stroke:#cd0000;" points="530.881,-106.393 540,-101 529.508,-99.5292 530.881,-106.393"/>
</g>
<!-- m2 -->
<g id="node6" class="node"><title>m2</title>
<polygon style="fill:none;stroke:black;" points="0,-216 0,-252 108,-252 108,-216 0,-216"/>
<text text-anchor="middle" x="54" y="-240.8" style="font-family:Arial;font-size:8.00;"> </text>
<polyline style="fill:none;stroke:black;" points="0,-234 108,-234 "/>
<text text-anchor="middle" x="54" y="-222.8" style="font-family:Arial;font-size:8.00;"> </text>
</g>
<!-- m2&#45;&gt;m5 -->
<g id="edge6" class="edge"><title>m2&#45;&gt;m5</title>
<path style="fill:none;stroke:#00cd00;stroke-width:2;" d="M54,-216C54,-208 54,-199 54,-190"/>
<polygon style="fill:#00cd00;stroke:#00cd00;" points="57.5001,-190 54,-180 50.5001,-190 57.5001,-190"/>
</g>
<!-- m2&#45;&gt;m7 -->
<g id="edge8" class="edge"><title>m2&#45;&gt;m7</title>
<path style="fill:none;stroke:#cd0000;" d="M99,-216C124,-206 154,-194 180,-184"/>
<polygon style="fill:#cd0000;stroke:#cd0000;" points="181.283,-187.26 189,-180 178.44,-180.863 181.283,-187.26"/>
</g>
<!-- m3 -->
<g id="node9" class="node"><title>m3</title>
<polygon style="fill:none;stroke:black;" points="540,-216 540,-252 648,-252 648,-216 540,-216"/>
<text text-anchor="middle" x="594" y="-240.8" style="font-family:Arial;font-size:8.00;"> </text>
<polyline style="fill:none;stroke:black;" points="540,-234 648,-234 "/>
<text text-anchor="middle" x="594" y="-222.8" style="font-family:Arial;font-size:8.00;"> </text>
</g>
<!-- m6 -->
<g id="node10" class="node"><title>m6</title>
<polygon style="fill:none;stroke:black;" points="360,-144 360,-180 468,-180 468,-144 360,-144"/>
<text text-anchor="middle" x="414" y="-168.8" style="font-family:Arial;font-size:8.00;"> </text>
<polyline style="fill:none;stroke:black;" points="360,-162 468,-162 "/>
<text text-anchor="middle" x="414" y="-150.8" style="font-family:Arial;font-size:8.00;"> </text>
</g>
<!-- m3&#45;&gt;m6 -->
<g id="edge10" class="edge"><title>m3&#45;&gt;m6</title>
<path style="fill:none;stroke:#00cd00;stroke-width:2;" d="M549,-216C524,-206 494,-194 468,-184"/>
<polygon style="fill:#00cd00;stroke:#00cd00;" points="469.56,-180.863 459,-180 466.717,-187.26 469.56,-180.863"/>
</g>
<!-- m8 -->
<g id="node12" class="node"><title>m8</title>
<polygon style="fill:none;stroke:black;" points="540,-144 540,-180 648,-180 648,-144 540,-144"/>
<text text-anchor="middle" x="594" y="-168.8" style="font-family:Arial;font-size:8.00;"> </text>
<polyline style="fill:none;stroke:black;" points="540,-162 648,-162 "/>
<text text-anchor="middle" x="594" y="-150.8" style="font-family:Arial;font-size:8.00;"> </text>
</g>
<!-- m3&#45;&gt;m8 -->
<g id="edge12" class="edge"><title>m3&#45;&gt;m8</title>
<path style="fill:none;stroke:#cd0000;" d="M594,-216C594,-208 594,-199 594,-190"/>
<polygon style="fill:#cd0000;stroke:#cd0000;" points="597.5,-190 594,-180 590.5,-190 597.5,-190"/>
</g>
<!-- m6&#45;&gt;m9 -->
<g id="edge22" class="edge"><title>m6&#45;&gt;m9</title>
<path style="fill:none;stroke:#00cd00;stroke-width:2;" d="M360,-151C295,-138 187,-116 118,-103"/>
<polygon style="fill:#00cd00;stroke:#00cd00;" points="118.492,-99.5292 108,-101 117.119,-106.393 118.492,-99.5292"/>
</g>
<!-- m6&#45;&gt;m11 -->
<g id="edge24" class="edge"><title>m6&#45;&gt;m11</title>
<path style="fill:none;stroke:#cd0000;" d="M414,-144C414,-136 414,-127 414,-118"/>
<polygon style="fill:#cd0000;stroke:#cd0000;" points="417.5,-118 414,-108 410.5,-118 417.5,-118"/>
</g>
<!-- m8&#45;&gt;m10 -->
<g id="edge30" class="edge"><title>m8&#45;&gt;m10</title>
<path style="fill:none;stroke:#00cd00;stroke-width:2;" d="M540,-151C475,-138 367,-116 298,-103"/>
<polygon style="fill:#00cd00;stroke:#00cd00;" points="298.492,-99.5292 288,-101 297.119,-106.393 298.492,-99.5292"/>
</g>
<!-- m8&#45;&gt;m12 -->
<g id="edge32" class="edge"><title>m8&#45;&gt;m12</title>
<path style="fill:none;stroke:#cd0000;" d="M594,-144C594,-136 594,-127 594,-118"/>
<polygon style="fill:#cd0000;stroke:#cd0000;" points="597.5,-118 594,-108 590.5,-118 597.5,-118"/>
</g>
<!-- m4 -->
<g id="node14" class="node"><title>m4</title>
<polygon style="fill:none;stroke:black;" points="360,-216 360,-252 468,-252 468,-216 360,-216"/>
<text text-anchor="middle" x="414" y="-240.8" style="font-family:Arial;font-size:8.00;"> </text>
<polyline style="fill:none;stroke:black;" points="360,-234 468,-234 "/>
<text text-anchor="middle" x="414" y="-222.8" style="font-family:Arial;font-size:8.00;"> </text>
</g>
<!-- m4&#45;&gt;m6 -->
<g id="edge14" class="edge"><title>m4&#45;&gt;m6</title>
<path style="fill:none;stroke:#00cd00;stroke-width:2;" d="M414,-216C414,-208 414,-199 414,-190"/>
<polygon style="fill:#00cd00;stroke:#00cd00;" points="417.5,-190 414,-180 410.5,-190 417.5,-190"/>
</g>
<!-- m4&#45;&gt;m8 -->
<g id="edge16" class="edge"><title>m4&#45;&gt;m8</title>
<path style="fill:none;stroke:#cd0000;" d="M459,-216C484,-206 514,-194 540,-184"/>
<polygon style="fill:#cd0000;stroke:#cd0000;" points="541.283,-187.26 549,-180 538.44,-180.863 541.283,-187.26"/>
</g>
<!-- m13 -->
<g id="node29" class="node"><title>m13</title>
<polygon style="fill:none;stroke:black;" points="180,-0 180,-36 288,-36 288,-0 180,-0"/>
<text text-anchor="middle" x="234" y="-24.8" style="font-family:Arial;font-size:8.00;"> </text>
<polyline style="fill:none;stroke:black;" points="180,-18 288,-18 "/>
<text text-anchor="middle" x="234" y="-6.8" style="font-family:Arial;font-size:8.00;"> </text>
</g>
<!-- m9&#45;&gt;m13 -->
<g id="edge34" class="edge"><title>m9&#45;&gt;m13</title>
<path style="fill:none;stroke:#00cd00;stroke-width:2;" d="M99,-72C124,-62 154,-50 180,-40"/>
<polygon style="fill:#00cd00;stroke:#00cd00;" points="181.283,-43.2598 189,-36 178.44,-36.8631 181.283,-43.2598"/>
</g>
<!-- m15 -->
<g id="node31" class="node"><title>m15</title>
<polygon style="fill:none;stroke:black;" points="0,-0 0,-36 108,-36 108,-0 0,-0"/>
<text text-anchor="middle" x="54" y="-24.8" style="font-family:Arial;font-size:8.00;"> </text>
<polyline style="fill:none;stroke:black;" points="0,-18 108,-18 "/>
<text text-anchor="middle" x="54" y="-6.8" style="font-family:Arial;font-size:8.00;"> </text>
</g>
<!-- m9&#45;&gt;m15 -->
<g id="edge36" class="edge"><title>m9&#45;&gt;m15</title>
<path style="fill:none;stroke:#cd0000;" d="M54,-72C54,-64 54,-55 54,-46"/>
<polygon style="fill:#cd0000;stroke:#cd0000;" points="57.5001,-46 54,-36 50.5001,-46 57.5001,-46"/>
</g>
<!-- m14 -->
<g id="node35" class="node"><title>m14</title>
<polygon style="fill:none;stroke:black;" points="540,-0 540,-36 648,-36 648,-0 540,-0"/>
<text text-anchor="middle" x="594" y="-24.8" style="font-family:Arial;font-size:8.00;"> </text>
<polyline style="fill:none;stroke:black;" points="540,-18 648,-18 "/>
<text text-anchor="middle" x="594" y="-6.8" style="font-family:Arial;font-size:8.00;"> </text>
</g>
<!-- m11&#45;&gt;m14 -->
<g id="edge42" class="edge"><title>m11&#45;&gt;m14</title>
<path style="fill:none;stroke:#00cd00;stroke-width:2;" d="M459,-72C484,-62 514,-50 540,-40"/>
<polygon style="fill:#00cd00;stroke:#00cd00;" points="541.283,-43.2598 549,-36 538.44,-36.8631 541.283,-43.2598"/>
</g>
<!-- m16 -->
<g id="node37" class="node"><title>m16</title>
<polygon style="fill:none;stroke:black;" points="360,-0 360,-36 468,-36 468,-0 360,-0"/>
<text text-anchor="middle" x="414" y="-24.8" style="font-family:Arial;font-size:8.00;"> </text>
<polyline style="fill:none;stroke:black;" points="360,-18 468,-18 "/>
<text text-anchor="middle" x="414" y="-6.8" style="font-family:Arial;font-size:8.00;"> </text>
</g>
<!-- m11&#45;&gt;m16 -->
<g id="edge44" class="edge"><title>m11&#45;&gt;m16</title>
<path style="fill:none;stroke:#cd0000;" d="M414,-72C414,-64 414,-55 414,-46"/>
<polygon style="fill:#cd0000;stroke:#cd0000;" points="417.5,-46 414,-36 410.5,-46 417.5,-46"/>
</g>
<!-- m10&#45;&gt;m13 -->
<g id="edge38" class="edge"><title>m10&#45;&gt;m13</title>
<path style="fill:none;stroke:#00cd00;stroke-width:2;" d="M234,-72C234,-64 234,-55 234,-46"/>
<polygon style="fill:#00cd00;stroke:#00cd00;" points="237.5,-46 234,-36 230.5,-46 237.5,-46"/>
</g>
<!-- m10&#45;&gt;m15 -->
<g id="edge40" class="edge"><title>m10&#45;&gt;m15</title>
<path style="fill:none;stroke:#cd0000;" d="M189,-72C164,-62 134,-50 108,-40"/>
<polygon style="fill:#cd0000;stroke:#cd0000;" points="109.56,-36.8631 99,-36 106.717,-43.2598 109.56,-36.8631"/>
</g>
<!-- m12&#45;&gt;m14 -->
<g id="edge46" class="edge"><title>m12&#45;&gt;m14</title>
<path style="fill:none;stroke:#00cd00;stroke-width:2;" d="M594,-72C594,-64 594,-55 594,-46"/>
<polygon style="fill:#00cd00;stroke:#00cd00;" points="597.5,-46 594,-36 590.5,-46 597.5,-46"/>
</g>
<!-- m12&#45;&gt;m16 -->
<g id="edge48" class="edge"><title>m12&#45;&gt;m16</title>
<path style="fill:none;stroke:#cd0000;" d="M549,-72C524,-62 494,-50 468,-40"/>
<polygon style="fill:#cd0000;stroke:#cd0000;" points="469.56,-36.8631 459,-36 466.717,-43.2598 469.56,-36.8631"/>
</g>
</g>
</svg>
